# xmcd
#
# Track frame offsets:
#	150
#	11916
#	33134
#	45862
#	70447
#	83277
#	106393
#	120086
#	148016
#	162702
#	177534
#	200027
#
# Disc length: 2885 seconds
#
# Revision: 0
# Processed by: cddbd v1.5.2PL0 Copyright (c) Steve Scherf et al.
# Submitted via: audiograbber 1.83.01
#
DISCID=9c0b430c
DTITLE=Ernst Mosch Und Seinen Original Egerländer Musikanten - Ein Abend Mit Er
DTITLE=nst Mosch
DYEAR=1973
DGENRE=Folk
TTITLE0=Wastl-Polka
TTITLE1=Rosen So Rot 
TTITLE2=Brautschau
TTITLE3=Im Schönen Prag 
TTITLE4=Hanna-Polka 
TTITLE5=Ich Bin Verliebt In Deine Schönen Augen 
TTITLE6=Eine Stille Stunde
TTITLE7=Dompfaff 
TTITLE8=Darf Ich Wagen, Dich Zu Fragen 
TTITLE9=Liebe Fürs Ganze Leben 
TTITLE10=Der Lieblingstrommler
TTITLE11=Böhmischer Wind
EXTD=
EXTT0=
EXTT1=
EXTT2=
EXTT3=
EXTT4=
EXTT5=
EXTT6=
EXTT7=
EXTT8=
EXTT9=
EXTT10=
EXTT11=
PLAYORDER=
